<svg width="114" height="114" viewBox="0 0 114 114" fill="none" xmlns="http://www.w3.org/2000/svg">
<g id="cookie-svgrepo-com (1) 1">
<g id="cookie">
<path id="Vector" d="M100.736 67.9804C96.3996 66.3456 93.097 62.7052 91.9015 58.2441C90.9363 54.6421 91.3979 50.8576 93.2003 47.5859C94.0702 46.0071 93.9807 44.0735 92.9689 42.5817C91.9572 41.0899 90.1969 40.2913 88.4056 40.5155C87.8093 40.5898 87.2017 40.6284 86.6003 40.6284C82.759 40.6284 79.1495 39.1343 76.4367 36.4213C73.2774 33.262 71.7849 28.8992 72.3425 24.4521C72.5665 22.6631 71.7682 20.9005 70.2762 19.8888C68.7842 18.877 66.8511 18.7877 65.2725 19.6574C62.0386 21.4391 58.1915 21.9149 54.6148 20.9562C50.1529 19.7605 46.5127 16.4583 44.8778 12.1221C44.0098 9.82135 41.5408 8.5502 39.1651 9.17965C30.2123 11.5507 22.0016 16.2813 15.421 22.8621C-5.13961 43.4225 -5.13939 76.8773 15.421 97.4374C25.379 107.396 38.6216 112.881 52.7082 112.883C52.7097 112.883 52.7113 112.883 52.7131 112.883C66.7959 112.883 80.037 107.398 89.9967 97.4376C96.5769 90.8575 101.308 82.6472 103.679 73.6933C104.308 71.316 103.037 68.8481 100.736 67.9804Z" fill="#F4D8AA"/>
<path id="Vector_2" d="M100.736 67.9804C96.3997 66.3457 93.097 62.7052 91.9016 58.2441C90.9363 54.6422 91.3979 50.8577 93.2003 47.586C94.0702 46.0071 93.9807 44.0735 92.969 42.5818C91.9572 41.09 90.1969 40.2913 88.4056 40.5155C87.8093 40.5899 87.2017 40.6284 86.6003 40.6284C82.759 40.6284 79.1496 39.1344 76.4367 36.4213C73.2774 33.262 71.785 28.8993 72.3425 24.4522C72.5665 22.6631 71.7683 20.9006 70.2762 19.8888C68.7842 18.877 66.8511 18.7878 65.2725 19.6575C62.0386 21.4392 58.1916 21.915 54.6148 20.9562C53.6754 20.7044 52.7752 20.3542 51.9193 19.9253V112.872C52.182 112.877 52.4443 112.882 52.7077 112.882C52.7093 112.882 52.7109 112.882 52.7126 112.882C66.7955 112.882 80.0366 107.397 89.9963 97.4372C96.5765 90.8571 101.307 82.6468 103.678 73.6929C104.308 71.316 103.037 68.8481 100.736 67.9804Z" fill="#ECB45C"/>
<path id="Vector_3" d="M61.4944 68.9414C60.232 68.9414 58.998 68.4297 58.1036 67.5385C57.2118 66.6434 56.7006 65.4099 56.7006 64.1476C56.7006 62.8852 57.2121 61.6487 58.1036 60.7568C58.9984 59.8655 60.2322 59.3538 61.4944 59.3538C62.7567 59.3538 63.9904 59.8655 64.8853 60.7568C65.7766 61.6487 66.2882 62.8854 66.2882 64.1476C66.2882 65.4101 65.7766 66.6436 64.8853 67.5385C63.9904 68.4297 62.7569 68.9414 61.4944 68.9414Z" fill="#B6731B"/>
<path id="Vector_4" d="M48.7108 49.7658C47.4483 49.7658 46.2115 49.2541 45.32 48.3599C44.4282 47.4679 43.917 46.2346 43.917 44.972C43.917 43.7095 44.4284 42.4731 45.32 41.5811C46.2117 40.6898 47.4485 40.1782 48.7108 40.1782C49.973 40.1782 51.2068 40.6896 52.1016 41.5811C52.9929 42.4731 53.5046 43.7097 53.5046 44.972C53.5046 46.2342 52.9929 47.4679 52.1016 48.3599C51.2068 49.2541 49.973 49.7658 48.7108 49.7658Z" fill="#B6731B"/>
<path id="Vector_5" d="M26.3391 59.3536C25.0767 59.3536 23.8427 58.8419 22.9483 57.9506C22.0566 57.0556 21.5453 55.822 21.5453 54.5598C21.5453 53.2975 22.0568 52.0609 22.9483 51.169C23.8432 50.2777 25.0767 49.766 26.3391 49.766C27.6016 49.766 28.8385 50.2777 29.73 51.169C30.6213 52.0609 31.1329 53.2975 31.1329 54.5598C31.1329 55.822 30.6213 57.0558 29.73 57.9506C28.8385 58.8419 27.6016 59.3536 26.3391 59.3536Z" fill="#B6731B"/>
<path id="Vector_6" d="M61.4944 91.3128C60.232 91.3128 58.998 90.8012 58.1036 89.9099C57.2118 89.0148 56.7006 87.7813 56.7006 86.519C56.7006 85.2568 57.2121 84.0201 58.1036 83.1282C58.9953 82.2369 60.2322 81.7252 61.4944 81.7252C62.7567 81.7252 63.9937 82.2367 64.8853 83.1282C65.7766 84.0201 66.2882 85.2566 66.2882 86.519C66.2882 87.7815 65.7766 89.015 64.8853 89.9099C63.9904 90.8012 62.7569 91.3128 61.4944 91.3128Z" fill="#B6731B"/>
<path id="Vector_7" d="M39.123 81.725C37.8605 81.725 36.6265 81.2134 35.7321 80.3221C34.8404 79.427 34.3292 78.1935 34.3292 76.9312C34.3292 75.6688 34.8406 74.4323 35.7321 73.5404C36.627 72.6491 37.8605 72.1374 39.123 72.1374C40.3854 72.1374 41.6189 72.6491 42.5138 73.5404C43.4051 74.4323 43.9168 75.669 43.9168 76.9312C43.9168 78.1937 43.4051 79.4272 42.5138 80.3221C41.6221 81.2134 40.3852 81.725 39.123 81.725Z" fill="#B6731B"/>
</g>
<g id="crumbs">
<path id="Vector_8" d="M109.203 58.1648C107.943 58.1648 106.707 57.6534 105.815 56.7585C104.923 55.8668 104.409 54.6333 104.409 53.3708C104.409 52.1083 104.924 50.8748 105.815 49.98C106.707 49.0882 107.944 48.577 109.203 48.577C110.465 48.577 111.702 49.0884 112.594 49.98C113.485 50.8717 114 52.1086 114 53.3708C114 54.6328 113.485 55.8668 112.594 56.7585C111.702 57.6534 110.466 58.1648 109.203 58.1648Z" fill="#B6731B"/>
<path id="Vector_9" d="M57.2279 10.7053C55.9658 10.7053 54.7319 10.1939 53.8372 9.30192C52.9455 8.41062 52.4338 7.17354 52.4338 5.9113C52.4338 4.64884 52.9455 3.41487 53.8372 2.52358C54.729 1.63162 55.9658 1.11728 57.2279 1.11728C58.4903 1.11728 59.7272 1.63139 60.6187 2.52358C61.5104 3.41487 62.0217 4.65173 62.0217 5.9113C62.0217 7.17332 61.5102 8.41062 60.6187 9.30192C59.7238 10.1939 58.4903 10.7053 57.2279 10.7053Z" fill="#B6731B"/>
<path id="Vector_10" d="M86.6047 31.0441C85.3456 31.0441 84.1087 30.5324 83.2168 29.6411C82.325 28.7494 81.8109 27.5128 81.8109 26.2503C81.8109 24.9912 82.325 23.7543 83.2168 22.8624C84.1085 21.9711 85.342 21.4596 86.6047 21.4596C87.8703 21.4596 89.1036 21.9711 89.9953 22.8624C90.8871 23.7543 91.4016 24.9907 91.4016 26.2503C91.4016 27.5128 90.8871 28.7496 89.9953 29.6411C89.104 30.5324 87.8672 31.0441 86.6047 31.0441Z" fill="#B6731B"/>
</g>
</g>
</svg>
